<svg xmlns="http://www.w3.org/2000/svg" xmlns:xlink="http://www.w3.org/1999/xlink" width="210" zoomAndPan="magnify" viewBox="0 0 157.5 44.999999" height="60" preserveAspectRatio="xMidYMid meet" version="1.0"><defs><clipPath id="56e8566758"><path d="M 0 1.09375 L 157 1.09375 L 157 43.84375 L 0 43.84375 Z M 0 1.09375 " clip-rule="nonzero"/></clipPath></defs><g clip-path="url(#56e8566758)"><path fill="#d81f26" d="M 21.589844 40.84375 C 19.21875 41.257812 16.808594 41.382812 14.316406 41.710938 L 6.710938 19.539062 L 6.710938 42.664062 L -0.0625 43.585938 L -0.0625 1.210938 L 6.257812 1.210938 L 14.902344 25.25 L 14.902344 1.210938 L 21.589844 1.210938 Z M 34.679688 16.726562 L 43.574219 16.601562 L 43.574219 23.222656 L 34.679688 23.34375 L 34.679688 33.191406 L 46.441406 32.488281 L 46.441406 38.859375 L 28.03125 40.308594 L 28.03125 1.210938 L 46.441406 1.210938 L 46.441406 7.832031 L 34.679688 7.832031 Z M 71.171875 7.832031 L 64.269531 7.832031 L 64.269531 38.277344 L 57.621094 38.363281 L 57.621094 7.828125 L 50.71875 7.828125 L 50.71875 1.210938 L 71.167969 1.210938 Z M 81.980469 16.269531 L 91.082031 16.269531 L 91.082031 22.890625 L 81.980469 22.890625 L 81.980469 37.90625 L 75.453125 37.90625 L 75.453125 1.210938 L 94.03125 1.210938 L 94.03125 7.832031 L 81.976562 7.832031 Z M 104.835938 32.113281 L 116.144531 32.695312 L 116.144531 39.230469 L 98.1875 38.363281 L 98.1875 1.210938 L 104.835938 1.210938 Z M 121.753906 39.683594 L 128.277344 40.179688 L 128.277344 1.210938 L 121.753906 1.210938 Z M 157.414062 1.210938 L 148.976562 21.359375 L 157.414062 43.570312 L 149.933594 42.371094 L 145.152344 30.125 L 140.292969 41.378906 L 133.140625 40.507812 L 141.703125 21.105469 L 133.972656 1.207031 L 141.121094 1.207031 L 145.484375 12.335938 L 150.140625 1.207031 Z M 157.414062 1.210938 " fill-opacity="1" fill-rule="nonzero"/></g></svg>